Genre: Comedy
 Language: English
 IMDb: http://www.imdb.com/title/tt1478338/
 Source: BluRay.x264-REFiNED Thanks!
-

Format : AVI
 Format/Info : Audio Video Interleave
 File size : 1.58 GiB
 Duration : 2h 10mn
 Overall bit rate : 1 733 Kbps
-
 
Video
 ID : 0
 Format : MPEG-4 Visual
 Format profile : Advanced Simple@L5
 Format settings, BVOP : Yes
 Format settings, QPel : No
 Format settings, GMC : No warppoints
 Format settings, Matrix : Default (H.263)
 Codec ID : XVID
 Codec ID/Hint : XviD
 Duration : 2h 10mn
 Bit rate : 1 276 Kbps
 Width : 624 pixels
 Height : 264 pixels
 Display aspect ratio : 2.35:1
 Frame rate : 23.976 fps
 Color space : YUV
 Chroma subsampling : 4:2:0
 Bit depth : 8 bits
 Scan type : Progressive
 Bits/(Pixel*Frame) : 0.323
 Stream size : 1.16 GiB (74%)
 Writing library : XviD 1.2.1 (UTC 2008-12-04)
 
Audio
 ID : 1
 Format : AC-3
 Format/Info : Audio Coding 3
 Mode extension : CM (complete main)
 Codec ID : 2000
 Duration : 2h 10mn
 Bit rate mode : Constant
 Bit rate : 448 Kbps
 Channel(s) : 6 channels
 Channel positions : Front: L C R, Side: L R, LFE
 Sampling rate : 48.0 KHz
 Bit depth : 16 bits
 Stream size : 418 MiB (26%)
 Alignment : Aligned on interleaves
 Interleave, duration : 42 ms (1.00 video frame)
 Interleave, preload duration : 512 ms
 
-

Plot:
 Picked as her best friend's maid of honor, lovelorn and broke Annie looks to bluff her way through the expensive and bizarre rituals with an oddball group of bridesmaids
 
